<svg xmlns="http://www.w3.org/2000/svg" viewBox="0 0 96 96" width="64" height="64">
  <path d="M48 8 L82 22 L82 50 C82 70 66 84 48 90 C30 84 14 70 14 50 L14 22 Z" fill="#10B981"/>
  <path d="M48 14 L76 26 L76 50 C76 66 64 78 48 84 C32 78 20 66 20 50 L20 26 Z" fill="#34D399"/>
  <circle cx="32" cy="44" r="6" fill="#FFFFFF"/>
  <circle cx="64" cy="44" r="6" fill="#FFFFFF"/>
  <circle cx="48" cy="64" r="6" fill="#FFFFFF"/>
  <path d="M32 44 L48 64 M64 44 L48 64" stroke="#FFFFFF" stroke-width="3"/>
  <circle cx="32" cy="44" r="3" fill="#047857"/>
  <circle cx="64" cy="44" r="3" fill="#047857"/>
  <circle cx="48" cy="64" r="3" fill="#047857"/>
</svg>
