<svg xmlns="http://www.w3.org/2000/svg" viewBox="0 0 96 96" width="64" height="64">
  <rect x="10" y="14" width="36" height="68" rx="4" fill="#FECACA"/>
  <rect x="50" y="14" width="36" height="68" rx="4" fill="#BBF7D0"/>
  <rect x="14" y="22" width="28" height="3" fill="#B91C1C"/>
  <rect x="14" y="30" width="22" height="3" fill="#B91C1C"/>
  <rect x="14" y="38" width="26" height="3" fill="#B91C1C"/>
  <rect x="14" y="46" width="20" height="3" fill="#B91C1C"/>
  <rect x="14" y="58" width="24" height="3" fill="#7F1D1D" opacity="0.5"/>
  <rect x="14" y="66" width="18" height="3" fill="#7F1D1D" opacity="0.5"/>
  <rect x="54" y="22" width="28" height="3" fill="#15803D"/>
  <rect x="54" y="30" width="22" height="3" fill="#15803D"/>
  <rect x="54" y="38" width="26" height="3" fill="#15803D"/>
  <rect x="54" y="46" width="20" height="3" fill="#15803D"/>
  <rect x="54" y="54" width="24" height="3" fill="#15803D"/>
  <rect x="54" y="62" width="18" height="3" fill="#15803D"/>
  <rect x="54" y="70" width="22" height="3" fill="#15803D"/>
</svg>
